# MagicaVoxel @ Ephtracy

# group
g house

# material
mtllib house.mtl
usemtl palette

# normals
vn -1 0 0
vn 1 0 0
vn 0 0 1
vn 0 0 -1
vn 0 -1 0
vn 0 1 0

# texcoords
vt 0.146484 0.5
vt 0.189453 0.5
vt 0.302734 0.5
vt 0.330078 0.5
vt 0.333984 0.5
vt 0.337891 0.5
vt 0.958984 0.5
vt 0.962891 0.5
vt 0.994141 0.5

# verts
v -4 2 3
v -4 2 2
v -4 2 1
v -4 2 -0
v -4 3 3
v -4 3 2
v -4 3 1
v -4 3 -0
v -4 4 2
v -4 4 1
v -3 0 3
v -3 0 2
v -3 0 1
v -3 0 -0
v -3 2 3
v -3 2 2
v -3 2 1
v -3 2 -0
v -3 4 1
v -3 4 -0
v -3 5 4
v -3 5 3
v -3 5 2
v -3 5 1
v -3 5 -0
v -3 5 -1
v -3 5 -2
v -3 5 -3
v -3 6 4
v -3 6 3
v -3 6 2
v -3 6 1
v -3 6 -0
v -3 6 -1
v -3 6 -2
v -3 6 -3
v -3 7 3
v -3 7 2
v -3 7 1
v -3 7 -0
v -3 7 -1
v -3 7 -2
v -3 8 2
v -3 8 1
v -3 8 -0
v -3 8 -1
v -3 9 1
v -3 9 -0
v -2 0 -0
v -2 0 -1
v -2 0 -2
v -2 1 -0
v -2 1 -1
v -2 2 2
v -2 2 1
v -2 2 -0
v -2 2 -1
v -2 2 -2
v -2 3 3
v -2 3 2
v -2 3 1
v -2 3 -0
v -2 4 2
v -2 4 1
v -2 4 -0
v -2 4 -1
v -2 4 -2
v -2 5 3
v -2 5 2
v -2 5 1
v -2 5 -0
v -2 5 -1
v -2 5 -2
v -2 6 3
v -2 6 2
v -2 6 1
v -2 6 -0
v -2 6 -1
v -2 6 -2
v -2 7 2
v -2 7 1
v -2 7 -0
v -2 7 -1
v -2 8 1
v -2 8 -0
v -1 0 2
v -1 0 1
v -1 1 -0
v -1 1 -1
v -1 2 2
v -1 2 1
v -1 2 -0
v -1 2 -1
v 0 0 -2
v 0 0 -3
v 0 1 -2
v 0 2 -2
v 0 2 -3
v 0 2 -4
v 0 3 -2
v 0 3 -3
v 0 3 -4
v 0 4 -1
v 0 4 -2
v 0 5 -1
v 0 5 -2
v 1 1 3
v 1 1 2
v 1 2 3
v 1 2 2
v 1 3 -2
v 1 3 -3
v 1 3 -4
v 1 4 -2
v 1 4 -3
v 1 4 -4
v 2 1 -2
v 2 1 -3
v 2 2 -2
v 2 2 -3
v 2 2 -4
v 2 3 -3
v 2 3 -4
v -1 4 -1
v -1 4 -2
v -1 5 -1
v -1 5 -2
v 0 1 3
v 0 1 2
v 0 2 3
v 0 2 2
v 1 1 -2
v 1 1 -3
v 1 2 -2
v 1 2 -3
v 1 2 -4
v 1 3 -3
v 1 3 -4
v 2 2 1
v 2 2 -0
v 2 3 1
v 2 3 -0
v 2 3 -2
v 2 3 -3
v 2 3 -4
v 2 4 1
v 2 4 -0
v 2 4 -2
v 2 4 -3
v 2 4 -4
v 2 5 1
v 2 5 -0
v 3 0 3
v 3 0 2
v 3 0 -0
v 3 0 -3
v 3 1 3
v 3 1 2
v 3 1 -1
v 3 1 -3
v 3 2 1
v 3 2 -0
v 3 2 -1
v 3 2 -2
v 3 2 -3
v 3 2 -4
v 3 3 3
v 3 3 2
v 3 3 1
v 3 3 -0
v 3 3 -2
v 3 3 -4
v 3 4 1
v 3 4 -0
v 3 4 -1
v 3 4 -2
v 3 5 3
v 3 5 2
v 3 5 1
v 3 5 -0
v 3 5 -1
v 3 5 -2
v 3 6 3
v 3 6 2
v 3 6 -0
v 3 6 -1
v 3 6 -2
v 3 7 2
v 3 7 1
v 3 7 -0
v 3 7 -1
v 3 8 1
v 3 8 -0
v 4 5 4
v 4 5 3
v 4 5 -2
v 4 5 -3
v 4 6 4
v 4 6 3
v 4 6 2
v 4 6 -1
v 4 6 -2
v 4 6 -3
v 4 7 3
v 4 7 2
v 4 7 1
v 4 7 -0
v 4 7 -1
v 4 7 -2
v 4 8 2
v 4 8 1
v 4 8 -0
v 4 8 -1
v 4 9 1
v 4 9 -0
v -3 5 4
v -3 6 4
v -2 5 4
v -2 6 4
v 0 5 4
v 0 6 4
v 2 5 4
v 2 6 4
v 3 5 4
v 3 6 4
v 4 5 4
v 4 6 4
v -4 2 3
v -4 3 3
v -3 0 3
v -3 2 3
v -3 3 3
v -3 6 3
v -3 7 3
v -2 0 3
v -2 2 3
v -2 3 3
v -2 5 3
v -2 6 3
v -2 7 3
v -1 1 3
v -1 2 3
v -1 6 3
v -1 7 3
v 0 0 3
v 0 1 3
v 0 2 3
v 0 3 3
v 0 5 3
v 0 6 3
v 1 1 3
v 1 2 3
v 1 3 3
v 1 4 3
v 1 5 3
v 2 0 3
v 2 1 3
v 2 3 3
v 2 4 3
v 2 5 3
v 2 6 3
v 2 7 3
v 3 0 3
v 3 1 3
v 3 3 3
v 3 5 3
v 3 6 3
v 3 7 3
v 4 6 3
v 4 7 3
v -4 3 2
v -4 4 2
v -3 3 2
v -3 4 2
v -3 5 2
v -3 6 2
v -3 7 2
v -3 8 2
v -2 3 2
v -2 4 2
v -2 5 2
v -2 6 2
v -2 7 2
v -2 8 2
v -1 7 2
v 0 1 2
v 0 2 2
v 0 7 2
v 0 8 2
v 1 1 2
v 1 2 2
v 1 7 2
v 1 8 2
v 2 7 2
v 3 7 2
v 3 8 2
v 4 7 2
v 4 8 2
v -4 2 1
v -4 3 1
v -3 0 1
v -3 2 1
v -3 3 1
v -3 4 1
v -3 5 1
v -3 6 1
v -3 7 1
v -3 8 1
v -3 9 1
v -2 0 1
v -2 2 1
v -2 3 1
v -2 4 1
v -2 5 1
v -2 6 1
v -2 7 1
v -2 8 1
v -2 9 1
v -1 0 1
v -1 2 1
v -1 8 1
v -1 9 1
v 0 8 1
v 0 9 1
v 1 8 1
v 3 8 1
v 3 9 1
v 4 8 1
v 4 9 1
v -3 7 -0
v -3 8 -0
v -2 7 -0
v -2 8 -0
v 2 2 -0
v 2 3 -0
v 2 4 -0
v 2 5 -0
v 3 2 -0
v 3 3 -0
v 3 4 -0
v 3 5 -0
v 3 7 -0
v 3 8 -0
v 4 7 -0
v 4 8 -0
v -3 6 -1
v -3 7 -1
v -2 1 -1
v -2 2 -1
v -2 6 -1
v -2 7 -1
v -1 1 -1
v -1 2 -1
v 3 6 -1
v 3 7 -1
v 4 6 -1
v 4 7 -1
v -3 5 -2
v -3 6 -2
v -2 5 -2
v -2 6 -2
v 3 5 -2
v 3 6 -2
v 4 5 -2
v 4 6 -2
v -3 5 3
v -3 6 3
v -2 5 3
v -2 6 3
v 3 5 3
v 3 6 3
v 4 5 3
v 4 6 3
v -4 2 2
v -4 3 2
v -3 0 2
v -3 2 2
v -3 3 2
v -3 6 2
v -3 7 2
v -2 0 2
v -2 2 2
v -2 3 2
v -2 6 2
v -2 7 2
v -1 0 2
v -1 2 2
v 3 6 2
v 3 7 2
v 4 6 2
v 4 7 2
v -4 3 1
v -4 4 1
v -3 3 1
v -3 4 1
v -3 7 1
v -3 8 1
v -2 3 1
v -2 4 1
v -2 7 1
v -2 8 1
v 2 2 1
v 2 3 1
v 2 4 1
v 2 5 1
v 3 2 1
v 3 3 1
v 3 4 1
v 3 5 1
v 3 7 1
v 3 8 1
v 4 7 1
v 4 8 1
v -4 2 -0
v -4 3 -0
v -3 0 -0
v -3 2 -0
v -3 3 -0
v -3 4 -0
v -3 5 -0
v -3 6 -0
v -3 7 -0
v -3 8 -0
v -3 9 -0
v -2 0 -0
v -2 1 -0
v -2 2 -0
v -2 3 -0
v -2 4 -0
v -2 5 -0
v -2 6 -0
v -2 7 -0
v -2 8 -0
v -2 9 -0
v -1 1 -0
v -1 2 -0
v -1 8 -0
v -1 9 -0
v 0 8 -0
v 0 9 -0
v 1 8 -0
v 2 8 -0
v 3 8 -0
v 3 9 -0
v 4 8 -0
v 4 9 -0
v -3 5 -1
v -3 6 -1
v -3 7 -1
v -3 8 -1
v -2 5 -1
v -2 6 -1
v -2 7 -1
v -2 8 -1
v -1 4 -1
v -1 5 -1
v -1 7 -1
v -1 8 -1
v 0 4 -1
v 0 5 -1
v 0 7 -1
v 0 8 -1
v 1 7 -1
v 1 8 -1
v 2 7 -1
v 2 8 -1
v 3 7 -1
v 4 7 -1
v 4 8 -1
v -3 6 -2
v -3 7 -2
v -2 0 -2
v -2 2 -2
v -2 4 -2
v -2 5 -2
v -2 6 -2
v -2 7 -2
v -1 1 -2
v -1 2 -2
v -1 4 -2
v -1 5 -2
v 0 0 -2
v 0 1 -2
v 0 2 -2
v 0 3 -2
v 0 4 -2
v 0 5 -2
v 0 6 -2
v 1 1 -2
v 1 2 -2
v 1 3 -2
v 1 4 -2
v 1 5 -2
v 1 6 -2
v 1 7 -2
v 2 1 -2
v 2 2 -2
v 2 3 -2
v 2 4 -2
v 3 3 -2
v 3 4 -2
v 3 5 -2
v 3 6 -2
v 3 7 -2
v 4 6 -2
v 4 7 -2
v -3 5 -3
v -3 6 -3
v -2 5 -3
v -2 6 -3
v 0 0 -3
v 0 2 -3
v 0 5 -3
v 0 6 -3
v 1 1 -3
v 1 2 -3
v 1 3 -3
v 1 5 -3
v 1 6 -3
v 2 0 -3
v 2 1 -3
v 2 2 -3
v 2 3 -3
v 3 0 -3
v 3 1 -3
v 3 2 -3
v 3 5 -3
v 3 6 -3
v 4 5 -3
v 4 6 -3
v 0 2 -4
v 0 3 -4
v 1 2 -4
v 1 3 -4
v 1 4 -4
v 2 2 -4
v 2 3 -4
v 2 4 -4
v 3 2 -4
v 3 3 -4
v -3 0 3
v -2 0 3
v 0 0 3
v 2 0 3
v 3 0 3
v -3 0 2
v -2 0 2
v -1 0 2
v 0 0 2
v 2 0 2
v 3 0 2
v -3 0 1
v -2 0 1
v -1 0 1
v 0 0 1
v -3 0 -0
v -2 0 -0
v -1 0 -0
v 2 0 -0
v 3 0 -0
v -2 0 -1
v -1 0 -1
v -2 0 -2
v 0 0 -2
v 2 0 -2
v 0 0 -3
v 2 0 -3
v 3 0 -3
v -4 2 3
v -3 2 3
v 0 2 3
v 1 2 3
v -4 2 2
v -3 2 2
v -2 2 2
v -1 2 2
v 0 2 2
v 1 2 2
v -4 2 1
v -3 2 1
v -2 2 1
v -1 2 1
v -4 2 -0
v -3 2 -0
v -2 2 -0
v -1 2 -0
v -2 2 -1
v -1 2 -1
v 1 2 -2
v 2 2 -2
v 0 2 -3
v 1 2 -3
v 2 2 -3
v 3 2 -3
v 0 2 -4
v 1 2 -4
v 2 2 -4
v 3 2 -4
v -4 3 2
v -3 3 2
v -2 3 2
v -4 3 1
v -3 3 1
v -2 3 1
v 2 3 1
v 3 3 1
v 2 3 -0
v 3 3 -0
v 1 3 -3
v 2 3 -3
v 1 3 -4
v 2 3 -4
v -3 4 1
v -2 4 1
v -3 4 -0
v -2 4 -0
v -3 5 4
v -2 5 4
v 0 5 4
v 2 5 4
v 3 5 4
v 4 5 4
v -3 5 3
v -2 5 3
v 0 5 3
v 1 5 3
v 2 5 3
v 3 5 3
v 4 5 3
v -3 5 2
v -2 5 2
v -3 5 1
v -2 5 1
v 2 5 1
v 3 5 1
v -3 5 -0
v -2 5 -0
v 2 5 -0
v 3 5 -0
v -3 5 -1
v -2 5 -1
v -1 5 -1
v 0 5 -1
v -3 5 -2
v -2 5 -2
v -1 5 -2
v 0 5 -2
v 1 5 -2
v 3 5 -2
v 4 5 -2
v -3 5 -3
v -2 5 -3
v 0 5 -3
v 1 5 -3
v 3 5 -3
v 4 5 -3
v -3 6 3
v -2 6 3
v 3 6 3
v 4 6 3
v -3 6 2
v -2 6 2
v 3 6 2
v 4 6 2
v -3 6 -1
v -2 6 -1
v 3 6 -1
v 4 6 -1
v -3 6 -2
v -2 6 -2
v 3 6 -2
v 4 6 -2
v -3 7 2
v -2 7 2
v 3 7 2
v 4 7 2
v -3 7 1
v -2 7 1
v 3 7 1
v 4 7 1
v -3 7 -0
v -2 7 -0
v 3 7 -0
v 4 7 -0
v -3 7 -1
v -2 7 -1
v 3 7 -1
v 4 7 -1
v -3 8 1
v -2 8 1
v 3 8 1
v 4 8 1
v -3 8 -0
v -2 8 -0
v 3 8 -0
v 4 8 -0
v 0 1 3
v 1 1 3
v 0 1 2
v 1 1 2
v -2 1 -0
v -1 1 -0
v -2 1 -1
v -1 1 -1
v 1 1 -2
v 2 1 -2
v 1 1 -3
v 2 1 -3
v 2 2 1
v 3 2 1
v 2 2 -0
v 3 2 -0
v -4 3 3
v -3 3 3
v -2 3 3
v -4 3 2
v -3 3 2
v -2 3 2
v -4 3 1
v -3 3 1
v -2 3 1
v -4 3 -0
v -3 3 -0
v -2 3 -0
v 0 3 -2
v 1 3 -2
v 2 3 -2
v 3 3 -2
v 0 3 -3
v 1 3 -3
v 2 3 -3
v 0 3 -4
v 1 3 -4
v 2 3 -4
v 3 3 -4
v -4 4 2
v -3 4 2
v -2 4 2
v -4 4 1
v -3 4 1
v -2 4 1
v 2 4 1
v 3 4 1
v 2 4 -0
v 3 4 -0
v -1 4 -1
v 0 4 -1
v -1 4 -2
v 0 4 -2
v 1 4 -2
v 2 4 -2
v 1 4 -3
v 2 4 -3
v 1 4 -4
v 2 4 -4
v -3 6 4
v -2 6 4
v 0 6 4
v 2 6 4
v 3 6 4
v 4 6 4
v -3 6 3
v -2 6 3
v -1 6 3
v 0 6 3
v 2 6 3
v 3 6 3
v 4 6 3
v -3 6 2
v -2 6 2
v -3 6 1
v -2 6 1
v -3 6 -0
v -2 6 -0
v -3 6 -1
v -2 6 -1
v -3 6 -2
v -2 6 -2
v 0 6 -2
v 1 6 -2
v 3 6 -2
v 4 6 -2
v -3 6 -3
v -2 6 -3
v 0 6 -3
v 1 6 -3
v 3 6 -3
v 4 6 -3
v -3 7 3
v -2 7 3
v -1 7 3
v 2 7 3
v 3 7 3
v 4 7 3
v -3 7 2
v -2 7 2
v -1 7 2
v 0 7 2
v 1 7 2
v 2 7 2
v 3 7 2
v 4 7 2
v -3 7 1
v -2 7 1
v -3 7 -0
v -2 7 -0
v -3 7 -1
v -2 7 -1
v -1 7 -1
v 0 7 -1
v 1 7 -1
v 2 7 -1
v 3 7 -1
v 4 7 -1
v -3 7 -2
v -2 7 -2
v 1 7 -2
v 3 7 -2
v 4 7 -2
v -3 8 2
v -2 8 2
v 0 8 2
v 1 8 2
v 3 8 2
v 4 8 2
v -3 8 1
v -2 8 1
v -1 8 1
v 0 8 1
v 1 8 1
v 3 8 1
v 4 8 1
v -3 8 -0
v -2 8 -0
v -1 8 -0
v 0 8 -0
v 1 8 -0
v 2 8 -0
v 3 8 -0
v 4 8 -0
v -3 8 -1
v -2 8 -1
v -1 8 -1
v 0 8 -1
v 1 8 -1
v 2 8 -1
v 4 8 -1
v -3 9 1
v -2 9 1
v -1 9 1
v 0 9 1
v 3 9 1
v 4 9 1
v -3 9 -0
v -2 9 -0
v -1 9 -0
v 0 9 -0
v 3 9 -0
v 4 9 -0

# faces
f 5/4/1 2/4/1 1/4/1
f 6/4/1 2/4/1 5/4/1
f 7/5/1 4/5/1 3/5/1
f 8/5/1 4/5/1 7/5/1
f 9/4/1 7/4/1 6/4/1
f 10/4/1 7/4/1 9/4/1
f 15/6/1 12/6/1 11/6/1
f 16/6/1 12/6/1 15/6/1
f 17/6/1 14/6/1 13/6/1
f 18/6/1 14/6/1 17/6/1
f 24/1/1 20/1/1 19/1/1
f 25/1/1 20/1/1 24/1/1
f 29/5/1 22/5/1 21/5/1
f 30/5/1 22/5/1 29/5/1
f 31/1/1 25/1/1 24/1/1
f 31/1/1 24/1/1 23/1/1
f 31/1/1 26/1/1 25/1/1
f 32/1/1 26/1/1 31/1/1
f 33/1/1 26/1/1 32/1/1
f 34/1/1 26/1/1 33/1/1
f 35/5/1 28/5/1 27/5/1
f 36/5/1 28/5/1 35/5/1
f 37/4/1 31/4/1 30/4/1
f 38/4/1 31/4/1 37/4/1
f 39/1/1 33/1/1 32/1/1
f 40/1/1 33/1/1 39/1/1
f 41/5/1 35/5/1 34/5/1
f 42/5/1 35/5/1 41/5/1
f 43/5/1 39/5/1 38/5/1
f 44/5/1 39/5/1 43/5/1
f 45/4/1 41/4/1 40/4/1
f 46/4/1 41/4/1 45/4/1
f 47/5/1 45/5/1 44/5/1
f 48/5/1 45/5/1 47/5/1
f 52/7/1 50/7/1 49/7/1
f 53/8/1 51/8/1 50/8/1
f 53/7/1 50/7/1 52/7/1
f 57/8/1 51/8/1 53/8/1
f 58/8/1 51/8/1 57/8/1
f 60/8/1 55/8/1 54/8/1
f 61/8/1 55/8/1 60/8/1
f 62/7/1 57/7/1 56/7/1
f 62/7/1 58/7/1 57/7/1
f 63/7/1 60/7/1 59/7/1
f 64/7/1 62/7/1 61/7/1
f 65/7/1 58/7/1 62/7/1
f 65/7/1 62/7/1 64/7/1
f 66/7/1 58/7/1 65/7/1
f 67/7/1 58/7/1 66/7/1
f 68/7/1 63/7/1 59/7/1
f 68/7/1 64/7/1 63/7/1
f 69/7/1 64/7/1 68/7/1
f 70/7/1 64/7/1 69/7/1
f 71/7/1 66/7/1 65/7/1
f 72/8/1 67/8/1 66/8/1
f 72/7/1 66/7/1 71/7/1
f 73/8/1 67/8/1 72/8/1
f 74/7/1 69/7/1 68/7/1
f 75/7/1 69/7/1 74/7/1
f 78/8/1 73/8/1 72/8/1
f 79/8/1 73/8/1 78/8/1
f 80/8/1 76/8/1 75/8/1
f 81/8/1 76/8/1 80/8/1
f 82/8/1 78/8/1 77/8/1
f 83/8/1 78/8/1 82/8/1
f 84/8/1 82/8/1 81/8/1
f 85/8/1 82/8/1 84/8/1
f 90/3/1 87/3/1 86/3/1
f 91/3/1 87/3/1 90/3/1
f 92/9/1 89/9/1 88/9/1
f 93/9/1 89/9/1 92/9/1
f 96/7/1 95/7/1 94/7/1
f 97/7/1 95/7/1 96/7/1
f 98/7/1 95/7/1 97/7/1
f 100/5/1 98/5/1 97/5/1
f 101/4/1 99/4/1 98/4/1
f 101/5/1 98/5/1 100/5/1
f 102/4/1 99/4/1 101/4/1
f 105/7/1 104/7/1 103/7/1
f 106/7/1 104/7/1 105/7/1
f 109/7/1 108/7/1 107/7/1
f 110/7/1 108/7/1 109/7/1
f 114/5/1 112/5/1 111/5/1
f 115/4/1 113/4/1 112/4/1
f 115/5/1 112/5/1 114/5/1
f 116/4/1 113/4/1 115/4/1
f 119/7/1 118/7/1 117/7/1
f 120/7/1 118/7/1 119/7/1
f 122/4/1 121/4/1 120/4/1
f 123/4/1 121/4/1 122/4/1
f 124/8/2 125/8/2 126/8/2
f 126/8/2 125/8/2 127/8/2
f 128/7/2 129/7/2 130/7/2
f 130/7/2 129/7/2 131/7/2
f 132/7/2 133/7/2 134/7/2
f 134/7/2 133/7/2 135/7/2
f 135/4/2 136/4/2 137/4/2
f 137/4/2 136/4/2 138/4/2
f 139/9/2 140/9/2 141/9/2
f 141/9/2 140/9/2 142/9/2
f 143/5/2 144/5/2 148/5/2
f 144/4/2 145/4/2 149/4/2
f 148/5/2 144/5/2 149/5/2
f 149/4/2 145/4/2 150/4/2
f 146/9/2 147/9/2 151/9/2
f 151/9/2 147/9/2 152/9/2
f 153/8/2 154/8/2 157/8/2
f 154/7/2 155/7/2 158/7/2
f 157/8/2 154/8/2 158/8/2
f 155/8/2 156/8/2 159/8/2
f 159/8/2 156/8/2 160/8/2
f 158/7/2 155/7/2 161/7/2
f 157/7/2 158/7/2 161/7/2
f 155/8/2 159/8/2 162/8/2
f 161/7/2 155/7/2 162/7/2
f 159/7/2 160/7/2 163/7/2
f 162/8/2 159/8/2 163/8/2
f 163/7/2 160/7/2 164/7/2
f 164/7/2 160/7/2 165/7/2
f 157/7/2 161/7/2 167/7/2
f 167/7/2 161/7/2 168/7/2
f 168/7/2 161/7/2 169/7/2
f 162/7/2 163/7/2 170/7/2
f 164/4/2 165/4/2 171/4/2
f 165/4/2 166/4/2 171/4/2
f 163/8/2 164/8/2 171/8/2
f 171/4/2 166/4/2 172/4/2
f 169/8/2 170/8/2 173/8/2
f 168/7/2 169/7/2 173/7/2
f 170/7/2 163/7/2 174/7/2
f 173/8/2 170/8/2 174/8/2
f 163/8/2 171/8/2 175/8/2
f 174/7/2 163/7/2 175/7/2
f 175/8/2 171/8/2 176/8/2
f 167/8/2 168/8/2 177/8/2
f 168/7/2 173/7/2 178/7/2
f 177/8/2 168/8/2 178/8/2
f 178/7/2 173/7/2 179/7/2
f 175/7/2 176/7/2 180/7/2
f 174/7/2 175/7/2 180/7/2
f 180/7/2 176/7/2 181/7/2
f 181/7/2 176/7/2 182/7/2
f 178/7/2 179/7/2 183/7/2
f 177/7/2 178/7/2 183/7/2
f 179/7/2 180/7/2 183/7/2
f 183/7/2 180/7/2 184/7/2
f 180/8/2 181/8/2 185/8/2
f 184/7/2 180/7/2 185/7/2
f 181/7/2 182/7/2 186/7/2
f 185/8/2 181/8/2 186/8/2
f 186/7/2 182/7/2 187/7/2
f 184/8/2 185/8/2 188/8/2
f 188/8/2 185/8/2 189/8/2
f 185/7/2 186/7/2 190/7/2
f 189/8/2 185/8/2 190/8/2
f 190/7/2 186/7/2 191/7/2
f 189/8/2 190/8/2 192/8/2
f 192/8/2 190/8/2 193/8/2
f 194/5/2 195/5/2 198/5/2
f 198/5/2 195/5/2 199/5/2
f 196/5/2 197/5/2 202/5/2
f 202/5/2 197/5/2 203/5/2
f 199/4/2 200/4/2 204/4/2
f 204/4/2 200/4/2 205/4/2
f 201/4/2 202/4/2 208/4/2
f 208/4/2 202/4/2 209/4/2
f 205/5/2 206/5/2 210/5/2
f 210/5/2 206/5/2 211/5/2
f 207/5/2 208/5/2 212/5/2
f 212/5/2 208/5/2 213/5/2
f 211/5/2 212/5/2 214/5/2
f 214/5/2 212/5/2 215/5/2
f 218/5/3 217/5/3 216/5/3
f 219/5/3 217/5/3 218/5/3
f 220/4/3 219/4/3 218/4/3
f 221/4/3 219/4/3 220/4/3
f 222/5/3 221/5/3 220/5/3
f 223/5/3 221/5/3 222/5/3
f 224/4/3 223/4/3 222/4/3
f 225/4/3 223/4/3 224/4/3
f 226/5/3 225/5/3 224/5/3
f 227/5/3 225/5/3 226/5/3
f 231/4/3 229/4/3 228/4/3
f 232/4/3 229/4/3 231/4/3
f 235/6/3 231/6/3 230/6/3
f 236/5/3 232/5/3 231/5/3
f 236/6/3 231/6/3 235/6/3
f 237/5/3 232/5/3 236/5/3
f 239/4/3 234/4/3 233/4/3
f 240/4/3 234/4/3 239/4/3
f 241/8/3 236/8/3 235/8/3
f 242/7/3 238/7/3 237/7/3
f 242/8/3 236/8/3 241/8/3
f 242/7/3 237/7/3 236/7/3
f 243/5/3 240/5/3 239/5/3
f 244/5/3 240/5/3 243/5/3
f 245/8/3 241/8/3 235/8/3
f 246/7/3 242/7/3 241/7/3
f 246/8/3 241/8/3 245/8/3
f 247/7/3 238/7/3 242/7/3
f 247/7/3 242/7/3 246/7/3
f 248/7/3 238/7/3 247/7/3
f 249/7/3 238/7/3 248/7/3
f 250/4/3 244/4/3 243/4/3
f 251/7/3 246/7/3 245/7/3
f 252/8/3 248/8/3 247/8/3
f 253/7/3 249/7/3 248/7/3
f 253/8/3 248/8/3 252/8/3
f 254/7/3 249/7/3 253/7/3
f 255/7/3 249/7/3 254/7/3
f 256/7/3 252/7/3 251/7/3
f 256/7/3 251/7/3 245/7/3
f 256/7/3 253/7/3 252/7/3
f 256/7/3 254/7/3 253/7/3
f 257/7/3 254/7/3 256/7/3
f 258/7/3 254/7/3 257/7/3
f 259/8/3 255/8/3 254/8/3
f 259/7/3 254/7/3 258/7/3
f 260/8/3 255/8/3 259/8/3
f 261/4/3 244/4/3 250/4/3
f 262/4/3 244/4/3 261/4/3
f 263/8/3 257/8/3 256/8/3
f 264/7/3 258/7/3 257/7/3
f 264/8/3 257/8/3 263/8/3
f 265/8/3 260/8/3 259/8/3
f 265/7/3 258/7/3 264/7/3
f 265/8/3 259/8/3 258/8/3
f 266/8/3 260/8/3 265/8/3
f 267/5/3 262/5/3 261/5/3
f 268/5/3 262/5/3 267/5/3
f 269/4/3 268/4/3 267/4/3
f 270/4/3 268/4/3 269/4/3
f 273/4/3 272/4/3 271/4/3
f 274/4/3 272/4/3 273/4/3
f 279/5/3 274/5/3 273/5/3
f 280/5/3 274/5/3 279/5/3
f 281/1/3 276/1/3 275/1/3
f 282/1/3 276/1/3 281/1/3
f 283/5/3 278/5/3 277/5/3
f 284/5/3 278/5/3 283/5/3
f 285/4/3 284/4/3 283/4/3
f 288/4/3 284/4/3 285/4/3
f 289/4/3 284/4/3 288/4/3
f 290/9/3 287/9/3 286/9/3
f 291/9/3 287/9/3 290/9/3
f 292/5/3 289/5/3 288/5/3
f 293/5/3 289/5/3 292/5/3
f 294/4/3 293/4/3 292/4/3
f 295/4/3 293/4/3 294/4/3
f 296/4/3 293/4/3 295/4/3
f 297/5/3 296/5/3 295/5/3
f 298/5/3 296/5/3 297/5/3
f 302/5/3 300/5/3 299/5/3
f 303/5/3 300/5/3 302/5/3
f 310/6/3 302/6/3 301/6/3
f 311/4/3 303/4/3 302/4/3
f 311/6/3 302/6/3 310/6/3
f 312/4/3 303/4/3 311/4/3
f 313/1/3 305/1/3 304/1/3
f 314/1/3 305/1/3 313/1/3
f 315/1/3 307/1/3 306/1/3
f 316/1/3 307/1/3 315/1/3
f 317/5/3 309/5/3 308/5/3
f 318/5/3 309/5/3 317/5/3
f 319/8/3 311/8/3 310/8/3
f 320/8/3 311/8/3 319/8/3
f 321/4/3 318/4/3 317/4/3
f 322/4/3 318/4/3 321/4/3
f 323/5/3 322/5/3 321/5/3
f 324/5/3 322/5/3 323/5/3
f 325/4/3 324/4/3 323/4/3
f 326/4/3 324/4/3 325/4/3
f 327/4/3 324/4/3 326/4/3
f 328/5/3 327/5/3 326/5/3
f 329/5/3 327/5/3 328/5/3
f 332/4/3 331/4/3 330/4/3
f 333/4/3 331/4/3 332/4/3
f 338/7/3 335/7/3 334/7/3
f 339/7/3 335/7/3 338/7/3
f 340/7/3 337/7/3 336/7/3
f 341/7/3 337/7/3 340/7/3
f 344/5/3 343/5/3 342/5/3
f 345/5/3 343/5/3 344/5/3
f 350/5/3 347/5/3 346/5/3
f 351/5/3 347/5/3 350/5/3
f 352/8/3 349/8/3 348/8/3
f 353/8/3 349/8/3 352/8/3
f 356/4/3 355/4/3 354/4/3
f 357/4/3 355/4/3 356/4/3
f 360/5/3 359/5/3 358/5/3
f 361/5/3 359/5/3 360/5/3
f 364/5/3 363/5/3 362/5/3
f 365/5/3 363/5/3 364/5/3
f 366/5/4 367/5/4 368/5/4
f 368/5/4 367/5/4 369/5/4
f 370/5/4 371/5/4 372/5/4
f 372/5/4 371/5/4 373/5/4
f 374/4/4 375/4/4 377/4/4
f 377/4/4 375/4/4 378/4/4
f 376/6/4 377/6/4 381/6/4
f 377/5/4 378/5/4 382/5/4
f 381/6/4 377/6/4 382/6/4
f 382/5/4 378/5/4 383/5/4
f 379/4/4 380/4/4 384/4/4
f 384/4/4 380/4/4 385/4/4
f 381/8/4 382/8/4 386/8/4
f 386/8/4 382/8/4 387/8/4
f 388/4/4 389/4/4 390/4/4
f 390/4/4 389/4/4 391/4/4
f 392/4/4 393/4/4 394/4/4
f 394/4/4 393/4/4 395/4/4
f 394/5/4 395/5/4 398/5/4
f 398/5/4 395/5/4 399/5/4
f 396/5/4 397/5/4 400/5/4
f 400/5/4 397/5/4 401/5/4
f 402/7/4 403/7/4 406/7/4
f 406/7/4 403/7/4 407/7/4
f 404/7/4 405/7/4 408/7/4
f 408/7/4 405/7/4 409/7/4
f 410/5/4 411/5/4 412/5/4
f 412/5/4 411/5/4 413/5/4
f 414/5/4 415/5/4 417/5/4
f 417/5/4 415/5/4 418/5/4
f 416/6/4 417/6/4 425/6/4
f 425/6/4 417/6/4 426/6/4
f 417/4/4 418/4/4 427/4/4
f 426/6/4 417/6/4 427/6/4
f 427/4/4 418/4/4 428/4/4
f 419/1/4 420/1/4 429/1/4
f 429/1/4 420/1/4 430/1/4
f 421/1/4 422/1/4 431/1/4
f 431/1/4 422/1/4 432/1/4
f 423/5/4 424/5/4 433/5/4
f 433/5/4 424/5/4 434/5/4
f 426/8/4 427/8/4 435/8/4
f 435/8/4 427/8/4 436/8/4
f 433/4/4 434/4/4 437/4/4
f 437/4/4 434/4/4 438/4/4
f 437/5/4 438/5/4 439/5/4
f 439/5/4 438/5/4 440/5/4
f 439/4/4 440/4/4 441/4/4
f 441/4/4 440/4/4 442/4/4
f 442/4/4 440/4/4 443/4/4
f 443/4/4 440/4/4 444/4/4
f 443/5/4 444/5/4 445/5/4
f 445/5/4 444/5/4 446/5/4
f 447/1/4 448/1/4 451/1/4
f 451/1/4 448/1/4 452/1/4
f 449/4/4 450/4/4 453/4/4
f 453/4/4 450/4/4 454/4/4
f 453/5/4 454/5/4 457/5/4
f 457/5/4 454/5/4 458/5/4
f 455/9/4 456/9/4 459/9/4
f 459/9/4 456/9/4 460/9/4
f 457/4/4 458/4/4 461/4/4
f 461/4/4 458/4/4 462/4/4
f 461/5/4 462/5/4 463/5/4
f 463/5/4 462/5/4 464/5/4
f 463/4/4 464/4/4 465/4/4
f 465/4/4 464/4/4 466/4/4
f 465/5/4 466/5/4 467/5/4
f 467/5/4 466/5/4 468/5/4
f 468/5/4 466/5/4 469/5/4
f 470/5/4 471/5/4 476/5/4
f 476/5/4 471/5/4 477/5/4
f 472/8/4 473/8/4 478/8/4
f 473/7/4 474/7/4 479/7/4
f 478/8/4 473/8/4 479/8/4
f 474/8/4 475/8/4 480/8/4
f 479/7/4 474/7/4 480/7/4
f 480/8/4 475/8/4 481/8/4
f 472/8/4 478/8/4 482/8/4
f 478/7/4 479/7/4 483/7/4
f 482/8/4 478/8/4 483/8/4
f 479/7/4 480/7/4 483/7/4
f 483/7/4 480/7/4 484/7/4
f 484/7/4 480/7/4 485/7/4
f 485/7/4 480/7/4 486/7/4
f 476/4/4 477/4/4 488/4/4
f 486/7/4 487/7/4 491/7/4
f 485/7/4 486/7/4 491/7/4
f 491/7/4 487/7/4 492/7/4
f 492/7/4 487/7/4 493/7/4
f 488/4/4 477/4/4 494/4/4
f 494/4/4 477/4/4 495/4/4
f 489/9/4 490/9/4 496/9/4
f 496/9/4 490/9/4 497/9/4
f 492/7/4 493/7/4 499/7/4
f 498/8/4 499/8/4 500/8/4
f 499/7/4 493/7/4 501/7/4
f 500/8/4 499/8/4 501/8/4
f 501/7/4 493/7/4 502/7/4
f 494/5/4 495/5/4 503/5/4
f 503/5/4 495/5/4 504/5/4
f 503/4/4 504/4/4 505/4/4
f 505/4/4 504/4/4 506/4/4
f 507/5/4 508/5/4 509/5/4
f 509/5/4 508/5/4 510/5/4
f 509/4/4 510/4/4 513/4/4
f 513/4/4 510/4/4 514/4/4
f 511/7/4 512/7/4 515/7/4
f 515/7/4 512/7/4 516/7/4
f 513/5/4 514/5/4 518/5/4
f 518/5/4 514/5/4 519/5/4
f 511/7/4 515/7/4 520/7/4
f 520/7/4 515/7/4 521/7/4
f 516/8/4 517/8/4 522/8/4
f 522/8/4 517/8/4 523/8/4
f 520/8/4 521/8/4 524/8/4
f 521/7/4 522/7/4 525/7/4
f 524/8/4 521/8/4 525/8/4
f 525/7/4 522/7/4 526/7/4
f 518/4/4 519/4/4 527/4/4
f 527/4/4 519/4/4 528/4/4
f 527/5/4 528/5/4 529/5/4
f 529/5/4 528/5/4 530/5/4
f 531/4/4 532/4/4 533/4/4
f 533/4/4 532/4/4 534/4/4
f 534/4/4 535/4/4 537/4/4
f 537/4/4 535/4/4 538/4/4
f 536/4/4 537/4/4 539/4/4
f 539/4/4 537/4/4 540/4/4
f 546/6/5 542/6/5 541/6/5
f 547/8/5 543/8/5 542/8/5
f 547/6/5 542/6/5 546/6/5
f 548/8/5 543/8/5 547/8/5
f 549/7/5 544/7/5 543/7/5
f 549/8/5 543/8/5 548/8/5
f 550/8/5 545/8/5 544/8/5
f 550/7/5 544/7/5 549/7/5
f 551/8/5 545/8/5 550/8/5
f 554/3/5 549/3/5 548/3/5
f 555/8/5 550/8/5 549/8/5
f 555/3/5 549/3/5 554/3/5
f 556/6/5 553/6/5 552/6/5
f 557/8/5 554/8/5 553/8/5
f 557/6/5 553/6/5 556/6/5
f 557/8/5 555/8/5 554/8/5
f 558/8/5 555/8/5 557/8/5
f 559/8/5 550/8/5 555/8/5
f 559/8/5 555/8/5 558/8/5
f 559/7/5 551/7/5 550/7/5
f 560/7/5 551/7/5 559/7/5
f 561/7/5 558/7/5 557/7/5
f 562/8/5 560/8/5 559/8/5
f 562/7/5 558/7/5 561/7/5
f 562/8/5 559/8/5 558/8/5
f 563/8/5 562/8/5 561/8/5
f 564/8/5 560/8/5 562/8/5
f 564/8/5 562/8/5 563/8/5
f 565/8/5 560/8/5 564/8/5
f 566/7/5 565/7/5 564/7/5
f 567/8/5 560/8/5 565/8/5
f 567/7/5 565/7/5 566/7/5
f 568/8/5 560/8/5 567/8/5
f 573/4/5 570/4/5 569/4/5
f 574/4/5 570/4/5 573/4/5
f 577/8/5 572/8/5 571/8/5
f 578/8/5 572/8/5 577/8/5
f 581/8/5 576/8/5 575/8/5
f 582/8/5 576/8/5 581/8/5
f 583/5/5 580/5/5 579/5/5
f 584/5/5 580/5/5 583/5/5
f 587/7/5 586/7/5 585/7/5
f 588/7/5 586/7/5 587/7/5
f 592/8/5 590/8/5 589/8/5
f 593/8/5 590/8/5 592/8/5
f 595/4/5 592/4/5 591/4/5
f 596/4/5 592/4/5 595/4/5
f 597/4/5 594/4/5 593/4/5
f 598/4/5 594/4/5 597/4/5
f 602/4/5 600/4/5 599/4/5
f 603/5/5 601/5/5 600/5/5
f 603/4/5 600/4/5 602/4/5
f 604/5/5 601/5/5 603/5/5
f 607/8/5 606/8/5 605/8/5
f 608/8/5 606/8/5 607/8/5
f 611/4/5 610/4/5 609/4/5
f 612/4/5 610/4/5 611/4/5
f 615/1/5 614/1/5 613/1/5
f 616/1/5 614/1/5 615/1/5
f 623/5/5 618/5/5 617/5/5
f 624/4/5 619/4/5 618/4/5
f 624/5/5 618/5/5 623/5/5
f 625/5/5 620/5/5 619/5/5
f 625/4/5 619/4/5 624/4/5
f 626/5/5 620/5/5 625/5/5
f 627/4/5 621/4/5 620/4/5
f 627/5/5 620/5/5 626/5/5
f 628/5/5 622/5/5 621/5/5
f 628/4/5 621/4/5 627/4/5
f 629/5/5 622/5/5 628/5/5
f 632/1/5 631/1/5 630/1/5
f 633/1/5 631/1/5 632/1/5
f 638/7/5 635/7/5 634/7/5
f 639/7/5 635/7/5 638/7/5
f 640/1/5 637/1/5 636/1/5
f 641/1/5 637/1/5 640/1/5
f 646/8/5 643/8/5 642/8/5
f 647/8/5 643/8/5 646/8/5
f 651/5/5 645/5/5 644/5/5
f 652/4/5 646/4/5 645/4/5
f 652/5/5 645/5/5 651/5/5
f 652/4/5 647/4/5 646/4/5
f 653/5/5 648/5/5 647/5/5
f 653/4/5 647/4/5 652/4/5
f 654/4/5 649/4/5 648/4/5
f 654/5/5 648/5/5 653/5/5
f 655/5/5 650/5/5 649/5/5
f 655/4/5 649/4/5 654/4/5
f 656/5/5 650/5/5 655/5/5
f 661/4/5 658/4/5 657/4/5
f 662/4/5 658/4/5 661/4/5
f 663/4/5 660/4/5 659/4/5
f 664/4/5 660/4/5 663/4/5
f 669/5/5 666/5/5 665/5/5
f 670/5/5 666/5/5 669/5/5
f 671/4/5 668/4/5 667/4/5
f 672/4/5 668/4/5 671/4/5
f 677/5/5 674/5/5 673/5/5
f 678/5/5 674/5/5 677/5/5
f 679/5/5 676/5/5 675/5/5
f 680/5/5 676/5/5 679/5/5
f 685/4/5 682/4/5 681/4/5
f 686/4/5 682/4/5 685/4/5
f 687/5/5 684/5/5 683/5/5
f 688/5/5 684/5/5 687/5/5
f 693/5/5 690/5/5 689/5/5
f 694/5/5 690/5/5 693/5/5
f 695/5/5 692/5/5 691/5/5
f 696/5/5 692/5/5 695/5/5
f 697/7/6 698/7/6 699/7/6
f 699/7/6 698/7/6 700/7/6
f 701/7/6 702/7/6 703/7/6
f 703/7/6 702/7/6 704/7/6
f 705/7/6 706/7/6 707/7/6
f 707/7/6 706/7/6 708/7/6
f 709/7/6 710/7/6 711/7/6
f 711/7/6 710/7/6 712/7/6
f 713/4/6 714/4/6 716/4/6
f 714/5/6 715/5/6 717/5/6
f 716/4/6 714/4/6 717/4/6
f 717/5/6 715/5/6 718/5/6
f 719/5/6 720/5/6 722/5/6
f 720/4/6 721/4/6 723/4/6
f 722/5/6 720/5/6 723/5/6
f 723/4/6 721/4/6 724/4/6
f 725/5/6 726/5/6 729/5/6
f 729/5/6 726/5/6 730/5/6
f 727/4/6 728/4/6 731/4/6
f 729/4/6 730/4/6 732/4/6
f 732/4/6 730/4/6 733/4/6
f 731/4/6 728/4/6 734/4/6
f 734/4/6 728/4/6 735/4/6
f 736/4/6 737/4/6 739/4/6
f 737/5/6 738/5/6 740/5/6
f 739/4/6 737/4/6 740/4/6
f 740/5/6 738/5/6 741/5/6
f 742/8/6 743/8/6 744/8/6
f 744/8/6 743/8/6 745/8/6
f 746/7/6 747/7/6 748/7/6
f 748/7/6 747/7/6 749/7/6
f 750/5/6 751/5/6 752/5/6
f 752/5/6 751/5/6 753/5/6
f 752/4/6 753/4/6 754/4/6
f 754/4/6 753/4/6 755/4/6
f 756/5/6 757/5/6 762/5/6
f 757/4/6 758/4/6 763/4/6
f 762/5/6 757/5/6 763/5/6
f 763/4/6 758/4/6 764/4/6
f 758/5/6 759/5/6 765/5/6
f 764/4/6 758/4/6 765/4/6
f 759/4/6 760/4/6 766/4/6
f 765/5/6 759/5/6 766/5/6
f 760/5/6 761/5/6 767/5/6
f 766/4/6 760/4/6 767/4/6
f 767/5/6 761/5/6 768/5/6
f 769/1/6 770/1/6 771/1/6
f 771/1/6 770/1/6 772/1/6
f 773/1/6 774/1/6 775/1/6
f 775/1/6 774/1/6 776/1/6
f 777/5/6 778/5/6 783/5/6
f 778/4/6 779/4/6 784/4/6
f 783/5/6 778/5/6 784/5/6
f 779/5/6 780/5/6 785/5/6
f 784/4/6 779/4/6 785/4/6
f 780/4/6 781/4/6 786/4/6
f 785/5/6 780/5/6 786/5/6
f 781/5/6 782/5/6 787/5/6
f 786/4/6 781/4/6 787/4/6
f 787/5/6 782/5/6 788/5/6
f 789/4/6 790/4/6 795/4/6
f 790/5/6 791/5/6 796/5/6
f 795/4/6 790/4/6 796/4/6
f 791/4/6 792/4/6 797/4/6
f 796/5/6 791/5/6 797/5/6
f 797/4/6 792/4/6 798/4/6
f 798/4/6 792/4/6 799/4/6
f 792/5/6 793/5/6 800/5/6
f 799/4/6 792/4/6 800/4/6
f 793/4/6 794/4/6 801/4/6
f 800/5/6 793/5/6 801/5/6
f 801/4/6 794/4/6 802/4/6
f 803/1/6 804/1/6 805/1/6
f 805/1/6 804/1/6 806/1/6
f 807/5/6 808/5/6 815/5/6
f 808/4/6 809/4/6 816/4/6
f 815/5/6 808/5/6 816/5/6
f 809/4/6 810/4/6 816/4/6
f 810/4/6 811/4/6 816/4/6
f 812/5/6 813/5/6 817/5/6
f 816/4/6 811/4/6 817/4/6
f 811/5/6 812/5/6 817/5/6
f 813/4/6 814/4/6 818/4/6
f 817/5/6 813/5/6 818/5/6
f 818/4/6 814/4/6 819/4/6
f 820/5/6 821/5/6 826/5/6
f 821/4/6 822/4/6 827/4/6
f 826/5/6 821/5/6 827/5/6
f 827/4/6 822/4/6 828/4/6
f 822/5/6 823/5/6 829/5/6
f 828/4/6 822/4/6 829/4/6
f 823/4/6 824/4/6 830/4/6
f 829/5/6 823/5/6 830/5/6
f 824/5/6 825/5/6 831/5/6
f 830/4/6 824/4/6 831/4/6
f 831/5/6 825/5/6 832/5/6
f 833/4/6 834/4/6 841/4/6
f 834/5/6 835/5/6 842/5/6
f 841/4/6 834/4/6 842/4/6
f 835/4/6 836/4/6 843/4/6
f 842/5/6 835/5/6 843/5/6
f 836/5/6 837/5/6 844/5/6
f 843/4/6 836/4/6 844/4/6
f 837/4/6 838/4/6 845/4/6
f 844/5/6 837/5/6 845/5/6
f 839/5/6 840/5/6 846/5/6
f 845/4/6 838/4/6 846/4/6
f 838/5/6 839/5/6 846/5/6
f 846/5/6 840/5/6 847/5/6
f 848/5/6 849/5/6 854/5/6
f 849/4/6 850/4/6 855/4/6
f 854/5/6 849/5/6 855/5/6
f 850/5/6 851/5/6 856/5/6
f 855/4/6 850/4/6 856/4/6
f 851/4/6 852/4/6 857/4/6
f 856/5/6 851/5/6 857/5/6
f 852/5/6 853/5/6 858/5/6
f 857/4/6 852/4/6 858/4/6
f 858/5/6 853/5/6 859/5/6
