# MagicaVoxel @ Ephtracy

# group
g Tower

# material
mtllib Tower.mtl
usemtl palette

# normals
vn -1 0 0
vn 1 0 0
vn 0 0 1
vn 0 0 -1
vn 0 -1 0
vn 0 1 0

# texcoords
vt 0.970703 0.5
vt 0.974609 0.5
vt 0.982422 0.5
vt 0.986328 0.5
vt 0.990234 0.5

# verts
v -4 11 4.5
v -4 11 0.5
v -4 11 -3.5
v -4 12 4.5
v -4 12 0.5
v -4 12 -3.5
v -4 18 4.5
v -4 18 2.5
v -4 18 -3.5
v -4 19 4.5
v -4 19 2.5
v -4 19 -3.5
v -3 0 3.5
v -3 0 2.5
v -3 0 -1.5
v -3 0 -2.5
v -3 0 -3.5
v -3 0 -4.5
v -3 2 3.5
v -3 2 2.5
v -3 2 -3.5
v -3 2 -4.5
v -3 3 -3.5
v -3 3 -4.5
v -3 4 -1.5
v -3 4 -2.5
v -3 6 2.5
v -3 6 -1.5
v -3 6 -3.5
v -3 6 -4.5
v -3 8 3.5
v -3 8 2.5
v -3 8 -1.5
v -3 8 -3.5
v -3 8 -4.5
v -3 10 2.5
v -3 10 0.5
v -3 10 -1.5
v -3 11 3.5
v -3 11 0.5
v -3 11 -2.5
v -3 11 -3.5
v -3 11 -4.5
v -3 12 3.5
v -3 12 0.5
v -3 12 -2.5
v -3 12 -3.5
v -3 12 -4.5
v -3 13 -2.5
v -3 13 -3.5
v -3 14 0.5
v -3 14 -2.5
v -3 16 2.5
v -3 16 0.5
v -3 18 3.5
v -3 18 2.5
v -3 18 -2.5
v 1 17 -1.5
v 1 17 -2.5
v 1 18 -1.5
v 1 18 -2.5
v 2 0 3.5
v 2 0 2.5
v 2 0 -1.5
v 2 0 -2.5
v 2 0 -3.5
v 2 0 -4.5
v 2 1 -3.5
v 2 1 -4.5
v 2 2 -3.5
v 2 2 -4.5
v 2 4 3.5
v 2 4 2.5
v 2 4 -3.5
v 2 4 -4.5
v 2 5 -3.5
v 2 5 -4.5
v 2 6 3.5
v 2 6 2.5
v 2 6 -1.5
v 2 6 -2.5
v 2 7 -3.5
v 2 7 -4.5
v 2 8 3.5
v 2 8 2.5
v 2 8 -1.5
v 2 8 -2.5
v 2 8 -3.5
v 2 8 -4.5
v 2 10 3.5
v 2 10 2.5
v 2 10 -1.5
v 2 10 -2.5
v 2 10 -3.5
v 2 10 -4.5
v 2 11 -3.5
v 2 11 -4.5
v 2 12 -1.5
v 2 12 -2.5
v 2 12 -3.5
v 2 12 -4.5
v 2 13 -2.5
v 2 13 -3.5
v 2 17 -1.5
v 2 17 -2.5
v -2 0 3.5
v -2 0 2.5
v -2 0 -1.5
v -2 0 -2.5
v -2 0 -3.5
v -2 0 -4.5
v -2 1 -3.5
v -2 1 -4.5
v -2 2 3.5
v -2 2 2.5
v -2 2 -3.5
v -2 2 -4.5
v -2 3 -3.5
v -2 3 -4.5
v -2 4 -1.5
v -2 4 -2.5
v -2 4 -3.5
v -2 4 -4.5
v -2 5 -3.5
v -2 5 -4.5
v -2 6 3.5
v -2 6 2.5
v -2 6 -1.5
v -2 6 -2.5
v -2 6 -3.5
v -2 6 -4.5
v -2 7 -3.5
v -2 7 -4.5
v -2 8 3.5
v -2 8 2.5
v -2 8 -1.5
v -2 8 -2.5
v -2 8 -3.5
v -2 8 -4.5
v -2 10 3.5
v -2 10 2.5
v -2 10 -1.5
v -2 10 -2.5
v -2 10 -3.5
v -2 10 -4.5
v -2 11 -3.5
v -2 11 -4.5
v -2 12 -1.5
v -2 12 -2.5
v -2 12 -3.5
v -2 12 -4.5
v -2 13 -2.5
v -2 13 -3.5
v -2 14 -1.5
v -2 14 -2.5
v -2 17 -1.5
v -2 17 -2.5
v -1 17 -1.5
v -1 17 -2.5
v -1 18 -1.5
v -1 18 -2.5
v 3 0 3.5
v 3 0 2.5
v 3 0 -1.5
v 3 0 -2.5
v 3 0 -3.5
v 3 0 -4.5
v 3 2 -3.5
v 3 2 -4.5
v 3 4 3.5
v 3 4 2.5
v 3 4 -3.5
v 3 4 -4.5
v 3 6 2.5
v 3 6 -1.5
v 3 8 2.5
v 3 8 -1.5
v 3 8 -2.5
v 3 8 -3.5
v 3 8 -4.5
v 3 10 2.5
v 3 10 -1.5
v 3 10 -2.5
v 3 10 -3.5
v 3 10 -4.5
v 3 11 3.5
v 3 11 -2.5
v 3 11 -3.5
v 3 12 3.5
v 3 12 -2.5
v 3 12 -3.5
v 3 12 -4.5
v 3 13 -2.5
v 3 13 -3.5
v 3 14 2.5
v 3 14 0.5
v 3 16 3.5
v 3 16 2.5
v 3 18 3.5
v 3 18 2.5
v 3 18 0.5
v 3 18 -1.5
v 3 18 -2.5
v 4 11 4.5
v 4 11 -3.5
v 4 12 4.5
v 4 12 -3.5
v 4 18 4.5
v 4 18 2.5
v 4 18 -1.5
v 4 18 -3.5
v 4 19 4.5
v 4 19 2.5
v 4 19 -1.5
v 4 19 -3.5
v -4 11 4.5
v -4 12 4.5
v -4 18 4.5
v -4 19 4.5
v -2 18 4.5
v -2 19 4.5
v 0 11 4.5
v 0 12 4.5
v 0 18 4.5
v 0 19 4.5
v 4 11 4.5
v 4 12 4.5
v 4 18 4.5
v 4 19 4.5
v -3 0 3.5
v -3 2 3.5
v -3 8 3.5
v -3 11 3.5
v -3 12 3.5
v -3 18 3.5
v -2 0 3.5
v -2 2 3.5
v -2 6 3.5
v -2 8 3.5
v -2 10 3.5
v -2 18 3.5
v 0 10 3.5
v 0 11 3.5
v 0 12 3.5
v 0 18 3.5
v 2 0 3.5
v 2 4 3.5
v 2 6 3.5
v 2 8 3.5
v 2 10 3.5
v 2 16 3.5
v 2 18 3.5
v 3 0 3.5
v 3 4 3.5
v 3 11 3.5
v 3 12 3.5
v 3 16 3.5
v 3 18 3.5
v -3 0 -1.5
v -3 4 -1.5
v -3 6 -1.5
v -3 8 -1.5
v -3 10 -1.5
v -2 0 -1.5
v -2 4 -1.5
v -2 6 -1.5
v -2 8 -1.5
v -2 10 -1.5
v 2 0 -1.5
v 2 6 -1.5
v 2 8 -1.5
v 2 10 -1.5
v 3 0 -1.5
v 3 6 -1.5
v 3 8 -1.5
v 3 10 -1.5
v -3 0 -3.5
v -3 2 -3.5
v -3 3 -3.5
v -3 6 -3.5
v -3 8 -3.5
v -3 11 -3.5
v -2 0 -3.5
v -2 1 -3.5
v -2 2 -3.5
v -2 3 -3.5
v -2 4 -3.5
v -2 5 -3.5
v -2 6 -3.5
v -2 7 -3.5
v -2 8 -3.5
v -2 10 -3.5
v -1 1 -3.5
v -1 2 -3.5
v -1 4 -3.5
v -1 5 -3.5
v -1 10 -3.5
v -1 11 -3.5
v 0 1 -3.5
v 0 2 -3.5
v 0 7 -3.5
v 0 8 -3.5
v 1 4 -3.5
v 1 5 -3.5
v 1 10 -3.5
v 1 11 -3.5
v 2 0 -3.5
v 2 1 -3.5
v 2 2 -3.5
v 2 4 -3.5
v 2 5 -3.5
v 2 7 -3.5
v 2 8 -3.5
v 2 10 -3.5
v 3 0 -3.5
v 3 2 -3.5
v 3 4 -3.5
v 3 8 -3.5
v 3 10 -3.5
v 3 11 -3.5
v -3 0 2.5
v -3 2 2.5
v -3 6 2.5
v -3 8 2.5
v -3 10 2.5
v -2 0 2.5
v -2 2 2.5
v -2 6 2.5
v -2 8 2.5
v -2 10 2.5
v 2 0 2.5
v 2 4 2.5
v 2 6 2.5
v 2 8 2.5
v 2 10 2.5
v 3 0 2.5
v 3 4 2.5
v 3 6 2.5
v 3 8 2.5
v 3 10 2.5
v -2 12 -1.5
v -2 14 -1.5
v -2 17 -1.5
v -1 17 -1.5
v -1 18 -1.5
v 1 17 -1.5
v 1 18 -1.5
v 2 12 -1.5
v 2 17 -1.5
v -3 0 -2.5
v -3 4 -2.5
v -3 11 -2.5
v -3 13 -2.5
v -3 14 -2.5
v -3 18 -2.5
v -2 0 -2.5
v -2 4 -2.5
v -2 6 -2.5
v -2 8 -2.5
v -2 10 -2.5
v -2 13 -2.5
v -2 14 -2.5
v -2 17 -2.5
v -1 17 -2.5
v -1 18 -2.5
v 1 17 -2.5
v 1 18 -2.5
v 2 0 -2.5
v 2 6 -2.5
v 2 8 -2.5
v 2 10 -2.5
v 2 13 -2.5
v 2 17 -2.5
v 2 18 -2.5
v 3 0 -2.5
v 3 8 -2.5
v 3 10 -2.5
v 3 11 -2.5
v 3 13 -2.5
v 3 18 -2.5
v -4 11 -3.5
v -4 12 -3.5
v -4 18 -3.5
v -4 19 -3.5
v -3 11 -3.5
v -3 12 -3.5
v -3 13 -3.5
v -2 11 -3.5
v -2 12 -3.5
v -2 13 -3.5
v -1 11 -3.5
v 1 11 -3.5
v 2 11 -3.5
v 2 12 -3.5
v 2 13 -3.5
v 2 18 -3.5
v 2 19 -3.5
v 3 11 -3.5
v 3 12 -3.5
v 3 13 -3.5
v 4 11 -3.5
v 4 12 -3.5
v 4 18 -3.5
v 4 19 -3.5
v -3 0 -4.5
v -3 2 -4.5
v -3 3 -4.5
v -3 6 -4.5
v -3 8 -4.5
v -3 11 -4.5
v -3 12 -4.5
v -2 0 -4.5
v -2 1 -4.5
v -2 2 -4.5
v -2 3 -4.5
v -2 4 -4.5
v -2 5 -4.5
v -2 6 -4.5
v -2 7 -4.5
v -2 8 -4.5
v -2 10 -4.5
v -2 11 -4.5
v -2 12 -4.5
v -1 1 -4.5
v -1 2 -4.5
v -1 4 -4.5
v -1 5 -4.5
v -1 10 -4.5
v -1 11 -4.5
v 0 1 -4.5
v 0 2 -4.5
v 0 7 -4.5
v 0 8 -4.5
v 1 4 -4.5
v 1 5 -4.5
v 1 10 -4.5
v 1 11 -4.5
v 2 0 -4.5
v 2 1 -4.5
v 2 2 -4.5
v 2 4 -4.5
v 2 5 -4.5
v 2 7 -4.5
v 2 8 -4.5
v 2 10 -4.5
v 2 11 -4.5
v 2 12 -4.5
v 3 0 -4.5
v 3 2 -4.5
v 3 4 -4.5
v 3 8 -4.5
v 3 10 -4.5
v 3 12 -4.5
v -3 0 3.5
v -2 0 3.5
v 2 0 3.5
v 3 0 3.5
v -3 0 2.5
v -2 0 2.5
v 2 0 2.5
v 3 0 2.5
v -3 0 -1.5
v -2 0 -1.5
v 2 0 -1.5
v 3 0 -1.5
v -3 0 -2.5
v -2 0 -2.5
v 2 0 -2.5
v 3 0 -2.5
v -3 0 -3.5
v -2 0 -3.5
v 2 0 -3.5
v 3 0 -3.5
v -3 0 -4.5
v -2 0 -4.5
v 2 0 -4.5
v 3 0 -4.5
v -2 1 -3.5
v -1 1 -3.5
v 0 1 -3.5
v 2 1 -3.5
v -2 1 -4.5
v -1 1 -4.5
v 0 1 -4.5
v 2 1 -4.5
v -2 4 -3.5
v -1 4 -3.5
v 1 4 -3.5
v 2 4 -3.5
v -2 4 -4.5
v -1 4 -4.5
v 1 4 -4.5
v 2 4 -4.5
v -2 6 3.5
v 2 6 3.5
v -3 6 2.5
v -2 6 2.5
v 2 6 2.5
v 3 6 2.5
v -3 6 -1.5
v -2 6 -1.5
v 2 6 -1.5
v 3 6 -1.5
v -2 6 -2.5
v 2 6 -2.5
v -2 7 -3.5
v 0 7 -3.5
v 2 7 -3.5
v -2 7 -4.5
v 0 7 -4.5
v 2 7 -4.5
v -2 10 3.5
v 0 10 3.5
v 2 10 3.5
v -3 10 2.5
v -2 10 2.5
v 0 10 2.5
v 2 10 2.5
v 3 10 2.5
v -3 10 0.5
v -2 10 0.5
v -3 10 -1.5
v -2 10 -1.5
v 2 10 -1.5
v 3 10 -1.5
v -2 10 -2.5
v 2 10 -2.5
v -2 10 -3.5
v -1 10 -3.5
v 1 10 -3.5
v 2 10 -3.5
v -2 10 -4.5
v -1 10 -4.5
v 1 10 -4.5
v 2 10 -4.5
v -4 11 4.5
v 0 11 4.5
v 4 11 4.5
v -3 11 3.5
v 0 11 3.5
v 3 11 3.5
v -4 11 0.5
v -3 11 0.5
v -3 11 -2.5
v 3 11 -2.5
v -4 11 -3.5
v -3 11 -3.5
v -1 11 -3.5
v 1 11 -3.5
v 3 11 -3.5
v 4 11 -3.5
v -2 17 -1.5
v -1 17 -1.5
v 1 17 -1.5
v 2 17 -1.5
v -2 17 -2.5
v -1 17 -2.5
v 1 17 -2.5
v 2 17 -2.5
v -4 18 4.5
v -2 18 4.5
v 0 18 4.5
v 4 18 4.5
v -3 18 3.5
v -2 18 3.5
v 0 18 3.5
v 2 18 3.5
v 3 18 3.5
v -4 18 2.5
v -3 18 2.5
v 3 18 2.5
v 4 18 2.5
v 3 18 0.5
v -1 18 -1.5
v 1 18 -1.5
v 3 18 -1.5
v 4 18 -1.5
v -3 18 -2.5
v -1 18 -2.5
v 1 18 -2.5
v 2 18 -2.5
v 3 18 -2.5
v -4 18 -3.5
v 2 18 -3.5
v 4 18 -3.5
v -2 2 -3.5
v -1 2 -3.5
v 0 2 -3.5
v 2 2 -3.5
v -2 2 -4.5
v -1 2 -4.5
v 0 2 -4.5
v 2 2 -4.5
v -2 5 -3.5
v -1 5 -3.5
v 1 5 -3.5
v 2 5 -3.5
v -2 5 -4.5
v -1 5 -4.5
v 1 5 -4.5
v 2 5 -4.5
v -2 8 3.5
v 2 8 3.5
v -3 8 2.5
v -2 8 2.5
v 2 8 2.5
v 3 8 2.5
v -3 8 -1.5
v -2 8 -1.5
v 2 8 -1.5
v 3 8 -1.5
v -2 8 -2.5
v 2 8 -2.5
v -2 8 -3.5
v 0 8 -3.5
v 2 8 -3.5
v -2 8 -4.5
v 0 8 -4.5
v 2 8 -4.5
v -2 11 -3.5
v -1 11 -3.5
v 1 11 -3.5
v 2 11 -3.5
v -2 11 -4.5
v -1 11 -4.5
v 1 11 -4.5
v 2 11 -4.5
v -4 12 4.5
v 0 12 4.5
v 4 12 4.5
v -3 12 3.5
v 0 12 3.5
v 3 12 3.5
v -4 12 0.5
v -3 12 0.5
v -2 12 -1.5
v 2 12 -1.5
v -3 12 -2.5
v -2 12 -2.5
v 2 12 -2.5
v 3 12 -2.5
v -4 12 -3.5
v -3 12 -3.5
v -2 12 -3.5
v 2 12 -3.5
v 3 12 -3.5
v 4 12 -3.5
v -3 12 -4.5
v -2 12 -4.5
v 2 12 -4.5
v 3 12 -4.5
v -3 13 -2.5
v -2 13 -2.5
v 2 13 -2.5
v 3 13 -2.5
v -3 13 -3.5
v -2 13 -3.5
v 2 13 -3.5
v 3 13 -3.5
v -4 19 4.5
v -2 19 4.5
v 0 19 4.5
v 4 19 4.5
v -4 19 2.5
v -2 19 2.5
v 0 19 2.5
v 4 19 2.5
v 2 19 -1.5
v 4 19 -1.5
v -4 19 -3.5
v 2 19 -3.5
v 4 19 -3.5

# faces
f 4/4/1 2/4/1 1/4/1
f 5/3/1 3/3/1 2/3/1
f 5/4/1 2/4/1 4/4/1
f 6/3/1 3/3/1 5/3/1
f 10/4/1 8/4/1 7/4/1
f 11/3/1 9/3/1 8/3/1
f 11/4/1 8/4/1 10/4/1
f 12/3/1 9/3/1 11/3/1
f 19/4/1 14/4/1 13/4/1
f 20/4/1 14/4/1 19/4/1
f 21/5/1 18/5/1 17/5/1
f 22/5/1 18/5/1 21/5/1
f 23/1/1 22/1/1 21/1/1
f 24/1/1 22/1/1 23/1/1
f 25/4/1 16/4/1 15/4/1
f 26/4/1 16/4/1 25/4/1
f 27/3/1 20/3/1 19/3/1
f 28/3/1 26/3/1 25/3/1
f 29/5/1 24/5/1 23/5/1
f 30/5/1 24/5/1 29/5/1
f 31/3/1 27/3/1 19/3/1
f 32/4/1 28/4/1 27/4/1
f 32/3/1 27/3/1 31/3/1
f 33/3/1 26/3/1 28/3/1
f 33/4/1 28/4/1 32/4/1
f 34/1/1 30/1/1 29/1/1
f 35/1/1 30/1/1 34/1/1
f 36/4/1 32/4/1 31/4/1
f 38/3/1 26/3/1 33/3/1
f 39/4/1 37/4/1 36/4/1
f 39/4/1 36/4/1 31/4/1
f 40/3/1 38/3/1 37/3/1
f 40/4/1 37/4/1 39/4/1
f 41/3/1 26/3/1 38/3/1
f 41/3/1 38/3/1 40/3/1
f 42/5/1 35/5/1 34/5/1
f 43/5/1 35/5/1 42/5/1
f 47/1/1 43/1/1 42/1/1
f 48/1/1 43/1/1 47/1/1
f 49/1/1 46/1/1 45/1/1
f 49/1/1 45/1/1 44/1/1
f 49/5/1 47/5/1 46/5/1
f 50/5/1 47/5/1 49/5/1
f 51/1/1 49/1/1 44/1/1
f 52/1/1 49/1/1 51/1/1
f 53/1/1 51/1/1 44/1/1
f 54/5/1 52/5/1 51/5/1
f 54/1/1 51/1/1 53/1/1
f 55/1/1 53/1/1 44/1/1
f 56/5/1 54/5/1 53/5/1
f 56/1/1 53/1/1 55/1/1
f 57/5/1 52/5/1 54/5/1
f 57/5/1 54/5/1 56/5/1
f 60/5/1 59/5/1 58/5/1
f 61/5/1 59/5/1 60/5/1
f 68/5/1 67/5/1 66/5/1
f 69/5/1 67/5/1 68/5/1
f 72/4/1 63/4/1 62/4/1
f 73/4/1 63/4/1 72/4/1
f 74/1/1 71/1/1 70/1/1
f 75/1/1 71/1/1 74/1/1
f 78/3/1 73/3/1 72/3/1
f 79/3/1 73/3/1 78/3/1
f 80/3/1 65/3/1 64/3/1
f 81/3/1 65/3/1 80/3/1
f 82/5/1 77/5/1 76/5/1
f 83/5/1 77/5/1 82/5/1
f 85/4/1 80/4/1 79/4/1
f 86/4/1 80/4/1 85/4/1
f 90/3/1 85/3/1 84/3/1
f 91/3/1 85/3/1 90/3/1
f 92/4/1 87/4/1 86/4/1
f 93/4/1 87/4/1 92/4/1
f 94/1/1 89/1/1 88/1/1
f 95/1/1 89/1/1 94/1/1
f 100/5/1 97/5/1 96/5/1
f 101/5/1 97/5/1 100/5/1
f 102/1/1 99/1/1 98/1/1
f 102/5/1 100/5/1 99/5/1
f 103/5/1 100/5/1 102/5/1
f 104/1/1 102/1/1 98/1/1
f 105/1/1 102/1/1 104/1/1
f 110/5/2 111/5/2 112/5/2
f 112/5/2 111/5/2 113/5/2
f 106/4/2 107/4/2 114/4/2
f 114/4/2 107/4/2 115/4/2
f 116/1/2 117/1/2 118/1/2
f 118/1/2 117/1/2 119/1/2
f 108/4/2 109/4/2 120/4/2
f 120/4/2 109/4/2 121/4/2
f 118/5/2 119/5/2 122/5/2
f 122/5/2 119/5/2 123/5/2
f 114/3/2 115/3/2 126/3/2
f 126/3/2 115/3/2 127/3/2
f 120/3/2 121/3/2 128/3/2
f 128/3/2 121/3/2 129/3/2
f 124/5/2 125/5/2 130/5/2
f 130/5/2 125/5/2 131/5/2
f 130/1/2 131/1/2 132/1/2
f 132/1/2 131/1/2 133/1/2
f 127/4/2 128/4/2 135/4/2
f 135/4/2 128/4/2 136/4/2
f 134/4/2 135/4/2 140/4/2
f 140/4/2 135/4/2 141/4/2
f 136/3/2 137/3/2 142/3/2
f 142/3/2 137/3/2 143/3/2
f 138/5/2 139/5/2 144/5/2
f 144/5/2 139/5/2 145/5/2
f 146/1/2 147/1/2 150/1/2
f 150/1/2 147/1/2 151/1/2
f 148/1/2 149/1/2 152/1/2
f 149/5/2 150/5/2 152/5/2
f 152/5/2 150/5/2 153/5/2
f 148/1/2 152/1/2 154/1/2
f 154/1/2 152/1/2 155/1/2
f 154/5/2 155/5/2 156/5/2
f 156/5/2 155/5/2 157/5/2
f 158/5/2 159/5/2 160/5/2
f 160/5/2 159/5/2 161/5/2
f 166/5/2 167/5/2 168/5/2
f 168/5/2 167/5/2 169/5/2
f 162/4/2 163/4/2 170/4/2
f 170/4/2 163/4/2 171/4/2
f 168/1/2 169/1/2 172/1/2
f 172/1/2 169/1/2 173/1/2
f 170/3/2 171/3/2 174/3/2
f 164/3/2 165/3/2 175/3/2
f 170/3/2 174/3/2 176/3/2
f 174/4/2 175/4/2 176/4/2
f 175/3/2 165/3/2 177/3/2
f 176/4/2 175/4/2 177/4/2
f 177/3/2 165/3/2 178/3/2
f 172/5/2 173/5/2 179/5/2
f 179/5/2 173/5/2 180/5/2
f 170/3/2 176/3/2 181/3/2
f 177/4/2 178/4/2 182/4/2
f 182/4/2 178/4/2 183/4/2
f 179/1/2 180/1/2 184/1/2
f 184/1/2 180/1/2 185/1/2
f 170/3/2 181/3/2 186/3/2
f 182/3/2 183/3/2 186/3/2
f 181/3/2 182/3/2 186/3/2
f 186/3/2 183/3/2 187/3/2
f 184/5/2 185/5/2 188/5/2
f 188/5/2 185/5/2 191/5/2
f 191/5/2 185/5/2 192/5/2
f 189/1/2 190/1/2 193/1/2
f 190/5/2 191/5/2 193/5/2
f 193/5/2 191/5/2 194/5/2
f 189/1/2 193/1/2 195/1/2
f 195/1/2 193/1/2 196/1/2
f 189/1/2 195/1/2 197/1/2
f 195/5/2 196/5/2 198/5/2
f 197/1/2 195/1/2 198/1/2
f 197/5/2 198/5/2 199/5/2
f 198/5/2 196/5/2 200/5/2
f 199/5/2 198/5/2 200/5/2
f 196/1/2 193/1/2 201/1/2
f 200/5/2 196/5/2 201/5/2
f 201/1/2 193/1/2 202/1/2
f 202/1/2 193/1/2 203/1/2
f 204/3/2 205/3/2 206/3/2
f 206/3/2 205/3/2 207/3/2
f 208/4/2 209/4/2 212/4/2
f 209/3/2 210/3/2 213/3/2
f 212/4/2 209/4/2 213/4/2
f 210/4/2 211/4/2 214/4/2
f 213/3/2 210/3/2 214/3/2
f 214/4/2 211/4/2 215/4/2
f 220/4/3 219/4/3 218/4/3
f 221/4/3 219/4/3 220/4/3
f 222/4/3 217/4/3 216/4/3
f 223/4/3 217/4/3 222/4/3
f 224/3/3 221/3/3 220/3/3
f 225/3/3 221/3/3 224/3/3
f 226/3/3 223/3/3 222/3/3
f 227/3/3 223/3/3 226/3/3
f 228/4/3 225/4/3 224/4/3
f 229/4/3 225/4/3 228/4/3
f 236/4/3 231/4/3 230/4/3
f 237/3/3 232/3/3 231/3/3
f 237/4/3 231/4/3 236/4/3
f 238/3/3 232/3/3 237/3/3
f 239/4/3 233/4/3 232/4/3
f 239/3/3 232/3/3 238/3/3
f 240/4/3 233/4/3 239/4/3
f 241/1/3 235/1/3 234/1/3
f 242/4/3 233/4/3 240/4/3
f 243/4/3 233/4/3 242/4/3
f 244/1/3 241/1/3 234/1/3
f 245/1/3 241/1/3 244/1/3
f 248/4/3 239/4/3 238/4/3
f 249/4/3 239/4/3 248/4/3
f 250/3/3 243/3/3 242/3/3
f 251/1/3 245/1/3 244/1/3
f 252/1/3 245/1/3 251/1/3
f 253/4/3 247/4/3 246/4/3
f 254/3/3 249/3/3 248/3/3
f 254/4/3 247/4/3 253/4/3
f 254/3/3 250/3/3 249/3/3
f 254/3/3 248/3/3 247/3/3
f 255/3/3 243/3/3 250/3/3
f 255/3/3 250/3/3 254/3/3
f 256/1/3 251/1/3 244/1/3
f 257/5/3 252/5/3 251/5/3
f 257/1/3 251/1/3 256/1/3
f 258/5/3 252/5/3 257/5/3
f 264/4/3 260/4/3 259/4/3
f 265/3/3 261/3/3 260/3/3
f 265/4/3 260/4/3 264/4/3
f 266/3/3 261/3/3 265/3/3
f 267/3/3 263/3/3 262/3/3
f 268/3/3 263/3/3 267/3/3
f 270/4/3 267/4/3 266/4/3
f 271/4/3 267/4/3 270/4/3
f 273/3/3 270/3/3 269/3/3
f 274/3/3 270/3/3 273/3/3
f 275/4/3 272/4/3 271/4/3
f 276/4/3 272/4/3 275/4/3
f 283/5/3 278/5/3 277/5/3
f 284/5/3 278/5/3 283/5/3
f 285/1/3 279/1/3 278/1/3
f 285/5/3 278/5/3 284/5/3
f 286/5/3 280/5/3 279/5/3
f 286/1/3 279/1/3 285/1/3
f 287/5/3 280/5/3 286/5/3
f 288/5/3 280/5/3 287/5/3
f 289/1/3 281/1/3 280/1/3
f 289/5/3 280/5/3 288/5/3
f 290/1/3 281/1/3 289/1/3
f 291/5/3 282/5/3 281/5/3
f 291/1/3 281/1/3 290/1/3
f 292/5/3 282/5/3 291/5/3
f 293/1/3 285/1/3 284/1/3
f 294/1/3 285/1/3 293/1/3
f 295/1/3 288/1/3 287/1/3
f 296/1/3 288/1/3 295/1/3
f 297/5/3 282/5/3 292/5/3
f 298/5/3 282/5/3 297/5/3
f 299/5/3 294/5/3 293/5/3
f 300/5/3 294/5/3 299/5/3
f 301/1/3 291/1/3 290/1/3
f 302/1/3 291/1/3 301/1/3
f 303/5/3 296/5/3 295/5/3
f 304/5/3 296/5/3 303/5/3
f 305/1/3 298/1/3 297/1/3
f 306/1/3 298/1/3 305/1/3
f 308/1/3 300/1/3 299/1/3
f 309/1/3 300/1/3 308/1/3
f 310/1/3 304/1/3 303/1/3
f 311/1/3 304/1/3 310/1/3
f 312/5/3 302/5/3 301/5/3
f 313/5/3 302/5/3 312/5/3
f 314/5/3 306/5/3 305/5/3
f 315/5/3 309/5/3 308/5/3
f 315/5/3 308/5/3 307/5/3
f 316/1/3 310/1/3 309/1/3
f 316/5/3 309/5/3 315/5/3
f 317/5/3 311/5/3 310/5/3
f 317/1/3 310/1/3 316/1/3
f 317/5/3 313/5/3 312/5/3
f 317/5/3 312/5/3 311/5/3
f 318/1/3 314/1/3 313/1/3
f 318/5/3 313/5/3 317/5/3
f 319/5/3 306/5/3 314/5/3
f 319/1/3 314/1/3 318/1/3
f 320/5/3 306/5/3 319/5/3
f 321/4/4 322/4/4 326/4/4
f 322/3/4 323/3/4 327/3/4
f 326/4/4 322/4/4 327/4/4
f 327/3/4 323/3/4 328/3/4
f 324/4/4 325/4/4 329/4/4
f 329/4/4 325/4/4 330/4/4
f 328/4/4 329/4/4 333/4/4
f 333/4/4 329/4/4 334/4/4
f 331/4/4 332/4/4 336/4/4
f 332/3/4 333/3/4 337/3/4
f 336/4/4 332/4/4 337/4/4
f 337/3/4 333/3/4 338/3/4
f 334/3/4 335/3/4 339/3/4
f 339/3/4 335/3/4 340/3/4
f 341/2/4 342/2/4 344/2/4
f 342/2/4 343/2/4 344/2/4
f 341/2/4 344/2/4 346/2/4
f 344/2/4 345/2/4 346/2/4
f 346/2/4 345/2/4 347/2/4
f 341/2/4 346/2/4 348/2/4
f 348/2/4 346/2/4 349/2/4
f 350/4/4 351/4/4 356/4/4
f 351/3/4 352/3/4 357/3/4
f 356/4/4 351/4/4 357/4/4
f 357/3/4 352/3/4 358/3/4
f 358/3/4 352/3/4 359/3/4
f 359/3/4 352/3/4 360/3/4
f 353/1/4 354/1/4 361/1/4
f 354/5/4 355/5/4 362/5/4
f 361/1/4 354/1/4 362/1/4
f 362/5/4 355/5/4 363/5/4
f 363/5/4 355/5/4 364/5/4
f 364/5/4 355/5/4 365/5/4
f 358/4/4 359/4/4 369/4/4
f 369/4/4 359/4/4 370/4/4
f 360/3/4 352/3/4 371/3/4
f 366/5/4 367/5/4 373/5/4
f 373/5/4 367/5/4 374/5/4
f 369/3/4 370/3/4 375/3/4
f 368/3/4 369/3/4 375/3/4
f 370/4/4 371/4/4 376/4/4
f 375/3/4 370/3/4 376/3/4
f 371/3/4 352/3/4 377/3/4
f 376/4/4 371/4/4 377/4/4
f 377/3/4 352/3/4 378/3/4
f 373/1/4 374/1/4 379/1/4
f 372/1/4 373/1/4 379/1/4
f 379/1/4 374/1/4 380/1/4
f 381/3/4 382/3/4 385/3/4
f 385/3/4 382/3/4 386/3/4
f 386/5/4 387/5/4 389/5/4
f 389/5/4 387/5/4 390/5/4
f 388/3/4 389/3/4 391/3/4
f 391/3/4 389/3/4 392/3/4
f 392/3/4 389/3/4 393/3/4
f 393/3/4 389/3/4 394/3/4
f 383/3/4 384/3/4 396/3/4
f 396/3/4 384/3/4 397/3/4
f 394/5/4 395/5/4 399/5/4
f 399/5/4 395/5/4 400/5/4
f 398/3/4 399/3/4 401/3/4
f 401/3/4 399/3/4 402/3/4
f 396/4/4 397/4/4 403/4/4
f 403/4/4 397/4/4 404/4/4
f 405/5/4 406/5/4 412/5/4
f 412/5/4 406/5/4 413/5/4
f 406/1/4 407/1/4 414/1/4
f 413/5/4 406/5/4 414/5/4
f 407/5/4 408/5/4 415/5/4
f 414/1/4 407/1/4 415/1/4
f 415/5/4 408/5/4 416/5/4
f 416/5/4 408/5/4 417/5/4
f 408/1/4 409/1/4 418/1/4
f 417/5/4 408/5/4 418/5/4
f 418/1/4 409/1/4 419/1/4
f 409/5/4 410/5/4 420/5/4
f 419/1/4 409/1/4 420/1/4
f 420/5/4 410/5/4 421/5/4
f 410/1/4 411/1/4 422/1/4
f 421/5/4 410/5/4 422/5/4
f 422/1/4 411/1/4 423/1/4
f 413/1/4 414/1/4 424/1/4
f 424/1/4 414/1/4 425/1/4
f 416/1/4 417/1/4 426/1/4
f 426/1/4 417/1/4 427/1/4
f 421/5/4 422/5/4 428/5/4
f 428/5/4 422/5/4 429/5/4
f 424/5/4 425/5/4 430/5/4
f 430/5/4 425/5/4 431/5/4
f 419/1/4 420/1/4 432/1/4
f 432/1/4 420/1/4 433/1/4
f 426/5/4 427/5/4 434/5/4
f 434/5/4 427/5/4 435/5/4
f 428/1/4 429/1/4 436/1/4
f 436/1/4 429/1/4 437/1/4
f 430/1/4 431/1/4 439/1/4
f 439/1/4 431/1/4 440/1/4
f 434/1/4 435/1/4 441/1/4
f 441/1/4 435/1/4 442/1/4
f 432/5/4 433/5/4 443/5/4
f 443/5/4 433/5/4 444/5/4
f 436/5/4 437/5/4 445/5/4
f 445/5/4 437/5/4 446/5/4
f 439/5/4 440/5/4 448/5/4
f 438/5/4 439/5/4 448/5/4
f 440/1/4 441/1/4 449/1/4
f 448/5/4 440/5/4 449/5/4
f 441/5/4 442/5/4 450/5/4
f 449/1/4 441/1/4 450/1/4
f 443/5/4 444/5/4 450/5/4
f 442/5/4 443/5/4 450/5/4
f 444/1/4 445/1/4 451/1/4
f 450/5/4 444/5/4 451/5/4
f 446/5/4 447/5/4 452/5/4
f 451/1/4 445/1/4 452/1/4
f 445/5/4 446/5/4 452/5/4
f 452/5/4 447/5/4 453/5/4
f 458/4/5 455/4/5 454/4/5
f 459/4/5 455/4/5 458/4/5
f 460/4/5 457/4/5 456/4/5
f 461/4/5 457/4/5 460/4/5
f 466/4/5 463/4/5 462/4/5
f 467/4/5 463/4/5 466/4/5
f 468/3/5 465/3/5 464/3/5
f 469/3/5 465/3/5 468/3/5
f 474/5/5 471/5/5 470/5/5
f 475/5/5 471/5/5 474/5/5
f 476/5/5 473/5/5 472/5/5
f 477/5/5 473/5/5 476/5/5
f 482/1/5 479/1/5 478/1/5
f 483/5/5 480/5/5 479/5/5
f 483/1/5 479/1/5 482/1/5
f 484/1/5 481/1/5 480/1/5
f 484/5/5 480/5/5 483/5/5
f 485/1/5 481/1/5 484/1/5
f 490/1/5 487/1/5 486/1/5
f 491/5/5 488/5/5 487/5/5
f 491/1/5 487/1/5 490/1/5
f 492/1/5 489/1/5 488/1/5
f 492/5/5 488/5/5 491/5/5
f 493/1/5 489/1/5 492/1/5
f 497/4/5 495/4/5 494/4/5
f 498/4/5 495/4/5 497/4/5
f 500/4/5 497/4/5 496/4/5
f 501/4/5 497/4/5 500/4/5
f 502/4/5 499/4/5 498/4/5
f 503/4/5 499/4/5 502/4/5
f 504/4/5 502/4/5 501/4/5
f 505/4/5 502/4/5 504/4/5
f 509/1/5 507/1/5 506/1/5
f 510/5/5 508/5/5 507/5/5
f 510/1/5 507/1/5 509/1/5
f 511/5/5 508/5/5 510/5/5
f 516/4/5 513/4/5 512/4/5
f 517/3/5 514/3/5 513/3/5
f 517/4/5 513/4/5 516/4/5
f 518/3/5 514/3/5 517/3/5
f 520/4/5 516/4/5 515/4/5
f 521/1/5 517/1/5 516/1/5
f 521/4/5 516/4/5 520/4/5
f 521/1/5 518/1/5 517/1/5
f 522/3/5 521/3/5 520/3/5
f 523/1/5 518/1/5 521/1/5
f 523/3/5 521/3/5 522/3/5
f 524/3/5 519/3/5 518/3/5
f 524/1/5 518/1/5 523/1/5
f 525/3/5 519/3/5 524/3/5
f 526/3/5 524/3/5 523/3/5
f 527/3/5 524/3/5 526/3/5
f 532/5/5 529/5/5 528/5/5
f 533/1/5 530/1/5 529/1/5
f 533/5/5 529/5/5 532/5/5
f 534/5/5 531/5/5 530/5/5
f 534/1/5 530/1/5 533/1/5
f 535/5/5 531/5/5 534/5/5
f 539/4/5 537/4/5 536/4/5
f 540/3/5 538/3/5 537/3/5
f 540/4/5 537/4/5 539/4/5
f 541/3/5 538/3/5 540/3/5
f 542/4/5 539/4/5 536/4/5
f 543/4/5 539/4/5 542/4/5
f 544/3/5 543/3/5 542/3/5
f 545/3/5 538/3/5 541/3/5
f 546/3/5 544/3/5 542/3/5
f 546/3/5 545/3/5 544/3/5
f 547/3/5 545/3/5 546/3/5
f 548/3/5 545/3/5 547/3/5
f 549/3/5 545/3/5 548/3/5
f 550/3/5 538/3/5 545/3/5
f 550/3/5 545/3/5 549/3/5
f 551/3/5 538/3/5 550/3/5
f 556/5/5 553/5/5 552/5/5
f 557/5/5 553/5/5 556/5/5
f 558/5/5 555/5/5 554/5/5
f 559/5/5 555/5/5 558/5/5
f 564/4/5 561/4/5 560/4/5
f 565/3/5 562/3/5 561/3/5
f 565/4/5 561/4/5 564/4/5
f 566/4/5 563/4/5 562/4/5
f 566/3/5 562/3/5 565/3/5
f 567/4/5 563/4/5 566/4/5
f 568/4/5 563/4/5 567/4/5
f 569/4/5 564/4/5 560/4/5
f 570/4/5 564/4/5 569/4/5
f 571/4/5 563/4/5 568/4/5
f 572/4/5 563/4/5 571/4/5
f 573/3/5 572/3/5 571/3/5
f 576/3/5 572/3/5 573/3/5
f 577/3/5 572/3/5 576/3/5
f 578/3/5 570/3/5 569/3/5
f 579/3/5 575/3/5 574/3/5
f 580/3/5 575/3/5 579/3/5
f 582/4/5 577/4/5 576/4/5
f 583/3/5 578/3/5 569/3/5
f 583/3/5 581/3/5 580/3/5
f 583/3/5 579/3/5 578/3/5
f 583/3/5 580/3/5 579/3/5
f 584/4/5 582/4/5 581/4/5
f 584/3/5 581/3/5 583/3/5
f 585/4/5 577/4/5 582/4/5
f 585/4/5 582/4/5 584/4/5
f 586/1/6 587/1/6 590/1/6
f 587/5/6 588/5/6 591/5/6
f 590/1/6 587/1/6 591/1/6
f 588/1/6 589/1/6 592/1/6
f 591/5/6 588/5/6 592/5/6
f 592/1/6 589/1/6 593/1/6
f 594/1/6 595/1/6 598/1/6
f 595/5/6 596/5/6 599/5/6
f 598/1/6 595/1/6 599/1/6
f 596/1/6 597/1/6 600/1/6
f 599/5/6 596/5/6 600/5/6
f 600/1/6 597/1/6 601/1/6
f 602/4/6 603/4/6 605/4/6
f 605/4/6 603/4/6 606/4/6
f 604/4/6 605/4/6 608/4/6
f 608/4/6 605/4/6 609/4/6
f 606/4/6 607/4/6 610/4/6
f 610/4/6 607/4/6 611/4/6
f 609/4/6 610/4/6 612/4/6
f 612/4/6 610/4/6 613/4/6
f 614/1/6 615/1/6 617/1/6
f 615/5/6 616/5/6 618/5/6
f 617/1/6 615/1/6 618/1/6
f 618/5/6 616/5/6 619/5/6
f 620/5/6 621/5/6 624/5/6
f 621/1/6 622/1/6 625/1/6
f 624/5/6 621/5/6 625/5/6
f 622/5/6 623/5/6 626/5/6
f 625/1/6 622/1/6 626/1/6
f 626/5/6 623/5/6 627/5/6
f 628/4/6 629/4/6 631/4/6
f 629/3/6 630/3/6 632/3/6
f 631/4/6 629/4/6 632/4/6
f 632/3/6 630/3/6 633/3/6
f 628/4/6 631/4/6 634/4/6
f 634/4/6 631/4/6 635/4/6
f 634/3/6 635/3/6 638/3/6
f 636/3/6 637/3/6 639/3/6
f 639/3/6 637/3/6 640/3/6
f 633/3/6 630/3/6 641/3/6
f 634/3/6 638/3/6 642/3/6
f 642/3/6 638/3/6 643/3/6
f 639/3/6 640/3/6 644/3/6
f 644/3/6 640/3/6 645/3/6
f 641/3/6 630/3/6 646/3/6
f 646/3/6 630/3/6 647/3/6
f 643/1/6 644/1/6 648/1/6
f 648/1/6 644/1/6 649/1/6
f 645/5/6 646/5/6 650/5/6
f 650/5/6 646/5/6 651/5/6
f 652/5/6 653/5/6 656/5/6
f 656/5/6 653/5/6 657/5/6
f 654/5/6 655/5/6 658/5/6
f 658/5/6 655/5/6 659/5/6
f 660/4/6 661/4/6 664/4/6
f 661/3/6 662/3/6 665/3/6
f 664/4/6 661/4/6 665/4/6
f 662/4/6 663/4/6 666/4/6
f 665/3/6 662/3/6 666/3/6
f 666/4/6 663/4/6 667/4/6
f 664/3/6 665/3/6 668/3/6
f 665/3/6 666/3/6 668/3/6
f 666/3/6 667/3/6 668/3/6
f 668/3/6 667/3/6 669/3/6
f 664/3/6 668/3/6 670/3/6
f 668/4/6 669/4/6 671/4/6
f 670/3/6 668/3/6 671/3/6
f 671/4/6 669/4/6 672/4/6
