# MagicaVoxel @ Ephtracy

# group
g Tree

# material
mtllib Tree.mtl
usemtl palette

# normals
vn -1 0 0
vn 1 0 0
vn 0 0 1
vn 0 0 -1
vn 0 -1 0
vn 0 1 0

# texcoords
vt 0.302734 0.5
vt 0.541016 0.5
vt 0.556641 0.5

# verts
v -1.5 1 1.5
v -1.5 1 0.5
v -1.5 1 -1.5
v -1.5 2 1.5
v -1.5 2 0.5
v -1.5 2 -0.5
v -1.5 2 -1.5
v -1.5 3 1.5
v -1.5 3 -0.5
v -1.5 3 -1.5
v -1.5 4 1.5
v -1.5 4 -0.5
v -1.5 4 -1.5
v -0.5 0 0.5
v -0.5 0 -0.5
v -0.5 1 0.5
v -0.5 1 -0.5
v 0.5 0 0.5
v 0.5 0 -0.5
v 0.5 1 0.5
v 0.5 1 -0.5
v 1.5 1 1.5
v 1.5 1 -1.5
v 1.5 2 1.5
v 1.5 2 0.5
v 1.5 2 -0.5
v 1.5 2 -1.5
v 1.5 3 1.5
v 1.5 3 0.5
v 1.5 3 -0.5
v 1.5 4 1.5
v 1.5 4 0.5
v 1.5 4 -1.5
v -1.5 1 1.5
v -1.5 2 1.5
v -1.5 3 1.5
v -1.5 4 1.5
v -0.5 3 1.5
v -0.5 4 1.5
v 0.5 1 1.5
v 0.5 2 1.5
v 0.5 3 1.5
v 1.5 1 1.5
v 1.5 2 1.5
v 1.5 3 1.5
v 1.5 4 1.5
v -0.5 0 0.5
v -0.5 1 0.5
v 0.5 0 0.5
v 0.5 1 0.5
v -0.5 0 -0.5
v -0.5 1 -0.5
v 0.5 0 -0.5
v 0.5 1 -0.5
v -1.5 1 -1.5
v -1.5 2 -1.5
v -1.5 3 -1.5
v -1.5 4 -1.5
v -0.5 1 -1.5
v -0.5 2 -1.5
v -0.5 3 -1.5
v 0.5 1 -1.5
v 0.5 2 -1.5
v 0.5 4 -1.5
v 1.5 1 -1.5
v 1.5 2 -1.5
v 1.5 4 -1.5
v -0.5 0 0.5
v 0.5 0 0.5
v -0.5 0 -0.5
v 0.5 0 -0.5
v -1.5 1 1.5
v 0.5 1 1.5
v 1.5 1 1.5
v -1.5 1 0.5
v -0.5 1 0.5
v 0.5 1 0.5
v -0.5 1 -0.5
v 0.5 1 -0.5
v -1.5 1 -1.5
v -0.5 1 -1.5
v 0.5 1 -1.5
v 1.5 1 -1.5
v -1.5 4 1.5
v -0.5 4 1.5
v 1.5 4 1.5
v 0.5 4 0.5
v 1.5 4 0.5
v -1.5 4 -0.5
v -0.5 4 -0.5
v -1.5 4 -1.5
v 0.5 4 -1.5
v 1.5 4 -1.5

# faces
f 4/3/1 2/3/1 1/3/1
f 5/2/1 3/2/1 2/2/1
f 5/3/1 2/3/1 4/3/1
f 6/2/1 3/2/1 5/2/1
f 7/2/1 3/2/1 6/2/1
f 8/2/1 5/2/1 4/2/1
f 8/2/1 6/2/1 5/2/1
f 9/3/1 7/3/1 6/3/1
f 9/2/1 6/2/1 8/2/1
f 10/3/1 7/3/1 9/3/1
f 11/3/1 9/3/1 8/3/1
f 12/2/1 10/2/1 9/2/1
f 12/3/1 9/3/1 11/3/1
f 13/2/1 10/2/1 12/2/1
f 16/1/1 15/1/1 14/1/1
f 17/1/1 15/1/1 16/1/1
f 18/1/2 19/1/2 20/1/2
f 20/1/2 19/1/2 21/1/2
f 22/2/2 23/2/2 24/2/2
f 24/2/2 23/2/2 25/2/2
f 25/2/2 23/2/2 26/2/2
f 26/2/2 23/2/2 27/2/2
f 24/3/2 25/3/2 28/3/2
f 25/2/2 26/2/2 29/2/2
f 28/3/2 25/3/2 29/3/2
f 26/3/2 27/3/2 30/3/2
f 29/2/2 26/2/2 30/2/2
f 28/2/2 29/2/2 31/2/2
f 29/3/2 30/3/2 32/3/2
f 31/2/2 29/2/2 32/2/2
f 30/3/2 27/3/2 33/3/2
f 32/3/2 30/3/2 33/3/2
f 38/2/3 36/2/3 35/2/3
f 38/3/3 37/3/3 36/3/3
f 39/3/3 37/3/3 38/3/3
f 40/3/3 35/3/3 34/3/3
f 41/2/3 38/2/3 35/2/3
f 41/3/3 35/3/3 40/3/3
f 41/2/3 39/2/3 38/2/3
f 42/2/3 39/2/3 41/2/3
f 43/2/3 41/2/3 40/2/3
f 44/3/3 42/3/3 41/3/3
f 44/2/3 41/2/3 43/2/3
f 45/2/3 39/2/3 42/2/3
f 45/3/3 42/3/3 44/3/3
f 46/2/3 39/2/3 45/2/3
f 49/1/3 48/1/3 47/1/3
f 50/1/3 48/1/3 49/1/3
f 51/1/4 52/1/4 53/1/4
f 53/1/4 52/1/4 54/1/4
f 55/2/4 56/2/4 59/2/4
f 56/3/4 57/3/4 60/3/4
f 59/2/4 56/2/4 60/2/4
f 57/2/4 58/2/4 61/2/4
f 60/3/4 57/3/4 61/3/4
f 59/3/4 60/3/4 62/3/4
f 60/2/4 61/2/4 63/2/4
f 62/3/4 60/3/4 63/3/4
f 61/2/4 58/2/4 64/2/4
f 63/2/4 61/2/4 64/2/4
f 62/2/4 63/2/4 65/2/4
f 63/3/4 64/3/4 66/3/4
f 65/2/4 63/2/4 66/2/4
f 66/3/4 64/3/4 67/3/4
f 70/1/5 69/1/5 68/1/5
f 71/1/5 69/1/5 70/1/5
f 75/3/5 73/3/5 72/3/5
f 76/3/5 73/3/5 75/3/5
f 77/2/5 74/2/5 73/2/5
f 77/3/5 73/3/5 76/3/5
f 78/2/5 76/2/5 75/2/5
f 79/2/5 74/2/5 77/2/5
f 80/2/5 78/2/5 75/2/5
f 81/3/5 79/3/5 78/3/5
f 81/2/5 78/2/5 80/2/5
f 82/2/5 74/2/5 79/2/5
f 82/3/5 79/3/5 81/3/5
f 83/2/5 74/2/5 82/2/5
f 85/2/6 86/2/6 87/2/6
f 87/2/6 86/2/6 88/2/6
f 84/3/6 85/3/6 89/3/6
f 85/2/6 87/2/6 90/2/6
f 89/3/6 85/3/6 90/3/6
f 89/2/6 90/2/6 91/2/6
f 87/3/6 88/3/6 92/3/6
f 91/2/6 90/2/6 92/2/6
f 90/2/6 87/2/6 92/2/6
f 92/3/6 88/3/6 93/3/6
